<svg width="759.3" height="92.9" viewBox="0 0 759.3 92.9" xmlns="http://www.w3.org/2000/svg"><g id="svgGroup" stroke-linecap="round" fill-rule="evenodd" font-size="9pt" stroke="#000" stroke-width="0.25mm" fill="#000" style="stroke:#000;stroke-width:0.25mm;fill:#000"><path d="M 0 70.1 L 0 1.9 L 41.8 1.9 L 41.8 9.6 L 8.4 9.6 L 8.4 31.4 L 39.4 31.4 L 39.4 38.9 L 8.4 38.9 L 8.4 62.4 L 42.8 62.4 L 42.8 70.1 L 0 70.1 Z M 443.7 70.1 L 443.7 1.9 L 485.5 1.9 L 485.5 9.6 L 452.1 9.6 L 452.1 31.4 L 483.1 31.4 L 483.1 38.9 L 452.1 38.9 L 452.1 62.4 L 486.5 62.4 L 486.5 70.1 L 443.7 70.1 Z M 364.6 70.1 L 364.6 29.8 A 12.017 12.017 0 0 0 364.611 29.475 Q 364.657 27.2 364.1 20.7 L 371.5 19.7 L 372.6 26.1 A 60.686 60.686 0 0 1 377.072 23.382 A 53.411 53.411 0 0 1 378.55 22.6 Q 381.5 21.1 384.6 19.95 A 18.848 18.848 0 0 1 388.024 19.02 A 15.491 15.491 0 0 1 390.6 18.8 A 29.313 29.313 0 0 1 393.485 18.934 Q 395.731 19.157 397.45 19.75 Q 400.2 20.7 401.9 22.9 A 11.265 11.265 0 0 1 403.285 25.27 Q 403.785 26.408 404.134 27.769 A 20.876 20.876 0 0 1 404.35 28.7 A 31.206 31.206 0 0 1 404.807 31.653 Q 404.981 33.24 405.052 35.074 A 68.308 68.308 0 0 1 405.1 37.7 L 405.1 70.1 L 397.1 70.1 L 397.1 38.6 Q 397.1 35.8 397.013 33.565 A 89.109 89.109 0 0 0 397 33.25 Q 396.9 30.9 396.15 29.25 Q 395.4 27.6 393.85 26.7 Q 392.754 26.064 391.033 25.878 A 14.271 14.271 0 0 0 389.5 25.8 A 13.31 13.31 0 0 0 386.393 26.185 A 17.685 17.685 0 0 0 384 26.95 Q 381.1 28.1 378.3 29.6 A 57.297 57.297 0 0 0 374.223 32.015 A 66.946 66.946 0 0 0 372.6 33.1 L 372.6 70.1 L 364.6 70.1 Z M 48.9 70.1 L 68 43.7 L 49.4 19.8 L 58.8 19.8 L 73.5 38.4 L 87.4 19.8 L 96.4 19.8 L 78.9 43.4 L 98.1 70.1 L 88.7 70.1 L 73.4 48.8 L 57.9 70.1 L 48.9 70.1 Z M 492.6 70.1 L 511.7 43.7 L 493.1 19.8 L 502.5 19.8 L 517.2 38.4 L 531.1 19.8 L 540.1 19.8 L 522.6 43.4 L 541.8 70.1 L 532.4 70.1 L 517.1 48.8 L 501.6 70.1 L 492.6 70.1 Z M 271.6 20.9 L 270.2 28 A 61.342 61.342 0 0 0 266.825 27.055 Q 264.629 26.51 262.75 26.25 Q 259.5 25.8 256.8 25.8 A 11.899 11.899 0 0 0 254.099 26.092 A 8.657 8.657 0 0 0 250.95 27.5 Q 248.6 29.2 248.6 31.9 Q 248.7 34.3 250.7 36 A 22.447 22.447 0 0 0 253.681 38.127 A 27.219 27.219 0 0 0 255.35 39.05 Q 258 40.4 261.25 42 Q 264.5 43.6 267.35 45.6 Q 270.2 47.6 272 50.4 Q 273.8 53.2 273.9 57.1 Q 273.813 60.74 272.487 63.291 A 10.028 10.028 0 0 1 272.05 64.05 Q 270.3 66.8 267.55 68.45 Q 264.8 70.1 261.6 70.75 A 33.467 33.467 0 0 1 258.127 71.276 A 26.56 26.56 0 0 1 255.6 71.4 Q 252 71.4 248.15 71 A 41.182 41.182 0 0 1 243.645 70.266 A 53.204 53.204 0 0 1 239.9 69.3 L 241.4 62.1 A 88.482 88.482 0 0 0 245.572 63.11 Q 247.56 63.538 249.361 63.814 A 53.872 53.872 0 0 0 249.6 63.85 A 65.245 65.245 0 0 0 251.99 64.163 Q 253.058 64.282 253.985 64.341 A 27.049 27.049 0 0 0 255.7 64.4 Q 257.5 64.4 259.25 64 A 13.495 13.495 0 0 0 261.295 63.366 A 11.259 11.259 0 0 0 262.4 62.85 A 6.672 6.672 0 0 0 264.049 61.623 A 6.067 6.067 0 0 0 264.65 60.9 Q 265.5 59.7 265.5 58.2 Q 265.4 55.4 263.6 53.45 A 15.531 15.531 0 0 0 261.391 51.491 A 21.112 21.112 0 0 0 258.95 49.95 Q 256.1 48.4 252.85 46.85 Q 249.6 45.3 246.75 43.25 Q 243.9 41.2 242 38.35 A 11.008 11.008 0 0 1 240.396 34.404 A 15.49 15.49 0 0 1 240.1 31.3 A 9.89 9.89 0 0 1 240.732 27.733 A 9.219 9.219 0 0 1 241.65 25.95 Q 243.2 23.6 245.65 22.05 Q 248.1 20.5 251.05 19.65 A 21.574 21.574 0 0 1 255.169 18.871 A 18.941 18.941 0 0 1 256.8 18.8 A 44.505 44.505 0 0 1 259.824 18.909 Q 261.472 19.022 263.3 19.25 A 51.8 51.8 0 0 1 266.155 19.693 Q 267.722 19.979 269.457 20.379 A 94.417 94.417 0 0 1 271.6 20.9 Z M 715.3 20.9 L 713.9 28 A 61.342 61.342 0 0 0 710.525 27.055 Q 708.329 26.51 706.45 26.25 Q 703.2 25.8 700.5 25.8 A 11.899 11.899 0 0 0 697.799 26.092 A 8.657 8.657 0 0 0 694.65 27.5 Q 692.3 29.2 692.3 31.9 Q 692.4 34.3 694.4 36 A 22.447 22.447 0 0 0 697.381 38.127 A 27.219 27.219 0 0 0 699.05 39.05 Q 701.7 40.4 704.95 42 Q 708.2 43.6 711.05 45.6 Q 713.9 47.6 715.7 50.4 Q 717.5 53.2 717.6 57.1 Q 717.513 60.74 716.187 63.291 A 10.028 10.028 0 0 1 715.75 64.05 Q 714 66.8 711.25 68.45 Q 708.5 70.1 705.3 70.75 A 33.467 33.467 0 0 1 701.827 71.276 A 26.56 26.56 0 0 1 699.3 71.4 Q 695.7 71.4 691.85 71 A 41.182 41.182 0 0 1 687.345 70.266 A 53.204 53.204 0 0 1 683.6 69.3 L 685.1 62.1 A 88.482 88.482 0 0 0 689.272 63.11 Q 691.26 63.538 693.061 63.814 A 53.872 53.872 0 0 0 693.3 63.85 A 65.245 65.245 0 0 0 695.69 64.163 Q 696.758 64.282 697.685 64.341 A 27.049 27.049 0 0 0 699.4 64.4 Q 701.2 64.4 702.95 64 A 13.495 13.495 0 0 0 704.995 63.366 A 11.259 11.259 0 0 0 706.1 62.85 A 6.672 6.672 0 0 0 707.749 61.623 A 6.067 6.067 0 0 0 708.35 60.9 Q 709.2 59.7 709.2 58.2 Q 709.1 55.4 707.3 53.45 A 15.531 15.531 0 0 0 705.091 51.491 A 21.112 21.112 0 0 0 702.65 49.95 Q 699.8 48.4 696.55 46.85 Q 693.3 45.3 690.45 43.25 Q 687.6 41.2 685.7 38.35 A 11.008 11.008 0 0 1 684.096 34.404 A 15.49 15.49 0 0 1 683.8 31.3 A 9.89 9.89 0 0 1 684.432 27.733 A 9.219 9.219 0 0 1 685.35 25.95 Q 686.9 23.6 689.35 22.05 Q 691.8 20.5 694.75 19.65 A 21.574 21.574 0 0 1 698.869 18.871 A 18.941 18.941 0 0 1 700.5 18.8 A 44.505 44.505 0 0 1 703.524 18.909 Q 705.172 19.022 707 19.25 A 51.8 51.8 0 0 1 709.855 19.693 Q 711.422 19.979 713.157 20.379 A 94.417 94.417 0 0 1 715.3 20.9 Z M 757 20.9 L 755.6 28 A 61.342 61.342 0 0 0 752.225 27.055 Q 750.029 26.51 748.15 26.25 Q 744.9 25.8 742.2 25.8 A 11.899 11.899 0 0 0 739.499 26.092 A 8.657 8.657 0 0 0 736.35 27.5 Q 734 29.2 734 31.9 Q 734.1 34.3 736.1 36 A 22.447 22.447 0 0 0 739.081 38.127 A 27.219 27.219 0 0 0 740.75 39.05 Q 743.4 40.4 746.65 42 Q 749.9 43.6 752.75 45.6 Q 755.6 47.6 757.4 50.4 Q 759.2 53.2 759.3 57.1 Q 759.213 60.74 757.887 63.291 A 10.028 10.028 0 0 1 757.45 64.05 Q 755.7 66.8 752.95 68.45 Q 750.2 70.1 747 70.75 A 33.467 33.467 0 0 1 743.527 71.276 A 26.56 26.56 0 0 1 741 71.4 Q 737.4 71.4 733.55 71 A 41.182 41.182 0 0 1 729.045 70.266 A 53.204 53.204 0 0 1 725.3 69.3 L 726.8 62.1 A 88.482 88.482 0 0 0 730.972 63.11 Q 732.96 63.538 734.761 63.814 A 53.872 53.872 0 0 0 735 63.85 A 65.245 65.245 0 0 0 737.39 64.163 Q 738.458 64.282 739.385 64.341 A 27.049 27.049 0 0 0 741.1 64.4 Q 742.9 64.4 744.65 64 A 13.495 13.495 0 0 0 746.695 63.366 A 11.259 11.259 0 0 0 747.8 62.85 A 6.672 6.672 0 0 0 749.449 61.623 A 6.067 6.067 0 0 0 750.05 60.9 Q 750.9 59.7 750.9 58.2 Q 750.8 55.4 749 53.45 A 15.531 15.531 0 0 0 746.791 51.491 A 21.112 21.112 0 0 0 744.35 49.95 Q 741.5 48.4 738.25 46.85 Q 735 45.3 732.15 43.25 Q 729.3 41.2 727.4 38.35 A 11.008 11.008 0 0 1 725.796 34.404 A 15.49 15.49 0 0 1 725.5 31.3 A 9.89 9.89 0 0 1 726.132 27.733 A 9.219 9.219 0 0 1 727.05 25.95 Q 728.6 23.6 731.05 22.05 Q 733.5 20.5 736.45 19.65 A 21.574 21.574 0 0 1 740.569 18.871 A 18.941 18.941 0 0 1 742.2 18.8 A 44.505 44.505 0 0 1 745.224 18.909 Q 746.872 19.022 748.7 19.25 A 51.8 51.8 0 0 1 751.555 19.693 Q 753.122 19.979 754.857 20.379 A 94.417 94.417 0 0 1 757 20.9 Z M 106.3 92.9 L 106.3 31.4 A 72.944 72.944 0 0 0 106.269 29.382 Q 106.175 26.025 105.8 20.7 L 113.2 19.7 L 114.1 25.1 Q 116.1 23.4 118.25 22.05 A 25.301 25.301 0 0 1 122.319 19.994 A 28.33 28.33 0 0 1 122.95 19.75 A 15.373 15.373 0 0 1 128.016 18.805 A 17.497 17.497 0 0 1 128.4 18.8 Q 132.5 18.8 136.15 20.2 A 16.207 16.207 0 0 1 142.356 24.484 A 18.906 18.906 0 0 1 142.55 24.7 A 18.986 18.986 0 0 1 145.131 28.484 Q 146.144 30.411 146.9 32.75 Q 148.209 36.8 148.447 42.357 A 59.466 59.466 0 0 1 148.5 44.9 Q 148.5 51.034 146.982 55.579 A 22.283 22.283 0 0 1 146.35 57.25 Q 144.2 62.3 140.75 65.45 Q 137.3 68.6 132.95 70 Q 128.6 71.4 124.1 71.4 A 49.975 49.975 0 0 1 115.236 70.398 A 55.52 55.52 0 0 1 114.3 70.2 L 114.3 91.9 L 106.3 92.9 Z M 550 92.9 L 550 31.4 A 72.944 72.944 0 0 0 549.969 29.382 Q 549.875 26.025 549.5 20.7 L 556.9 19.7 L 557.8 25.1 Q 559.8 23.4 561.95 22.05 A 25.301 25.301 0 0 1 566.019 19.994 A 28.33 28.33 0 0 1 566.65 19.75 A 15.373 15.373 0 0 1 571.716 18.805 A 17.497 17.497 0 0 1 572.1 18.8 Q 576.2 18.8 579.85 20.2 A 16.207 16.207 0 0 1 586.056 24.484 A 18.906 18.906 0 0 1 586.25 24.7 A 18.986 18.986 0 0 1 588.831 28.484 Q 589.844 30.411 590.6 32.75 Q 591.909 36.8 592.147 42.357 A 59.466 59.466 0 0 1 592.2 44.9 Q 592.2 51.034 590.682 55.579 A 22.283 22.283 0 0 1 590.05 57.25 Q 587.9 62.3 584.45 65.45 Q 581 68.6 576.65 70 Q 572.3 71.4 567.8 71.4 A 49.975 49.975 0 0 1 558.936 70.398 A 55.52 55.52 0 0 1 558 70.2 L 558 91.9 L 550 92.9 Z M 228.1 62.2 L 229.6 68.9 Q 227.3 69.6 224.85 70.1 Q 222.4 70.6 219.45 71 A 45.058 45.058 0 0 1 214.195 71.392 A 50.368 50.368 0 0 1 213.3 71.4 A 31.515 31.515 0 0 1 207.039 70.797 A 27.288 27.288 0 0 1 204 70 Q 199.7 68.6 196.5 65.5 A 19.463 19.463 0 0 1 193.046 60.936 A 25.645 25.645 0 0 1 191.45 57.45 Q 189.6 52.5 189.6 45.3 A 39.835 39.835 0 0 1 189.992 39.57 A 28.859 28.859 0 0 1 191.4 33.85 A 26.307 26.307 0 0 1 193.772 28.915 A 21.444 21.444 0 0 1 196.35 25.55 Q 199.5 22.2 203.75 20.5 A 24.035 24.035 0 0 1 211.151 18.86 A 28.239 28.239 0 0 1 213 18.8 A 21.296 21.296 0 0 1 217.174 19.19 A 15.873 15.873 0 0 1 221.5 20.7 Q 225.1 22.6 227.45 25.85 A 21.654 21.654 0 0 1 230.208 31.09 A 26.241 26.241 0 0 1 230.95 33.45 A 35.317 35.317 0 0 1 232.09 41.704 A 39.552 39.552 0 0 1 232.1 42.6 L 230.6 47 L 198.3 47 Q 198.3 50.1 199.1 53.2 Q 199.9 56.3 201.85 58.8 A 13.9 13.9 0 0 0 205.629 62.127 A 16.816 16.816 0 0 0 206.95 62.85 Q 209.682 64.194 213.579 64.373 A 26.692 26.692 0 0 0 214.8 64.4 Q 217.8 64.4 220.3 64.05 A 58.345 58.345 0 0 0 222.084 63.774 Q 223.494 63.532 224.65 63.25 A 31.635 31.635 0 0 0 227.076 62.561 A 26.901 26.901 0 0 0 228.1 62.2 Z M 671.8 62.2 L 673.3 68.9 Q 671 69.6 668.55 70.1 Q 666.1 70.6 663.15 71 A 45.058 45.058 0 0 1 657.895 71.392 A 50.368 50.368 0 0 1 657 71.4 A 31.515 31.515 0 0 1 650.739 70.797 A 27.288 27.288 0 0 1 647.7 70 Q 643.4 68.6 640.2 65.5 A 19.463 19.463 0 0 1 636.746 60.936 A 25.645 25.645 0 0 1 635.15 57.45 Q 633.3 52.5 633.3 45.3 A 39.835 39.835 0 0 1 633.692 39.57 A 28.859 28.859 0 0 1 635.1 33.85 A 26.307 26.307 0 0 1 637.472 28.915 A 21.444 21.444 0 0 1 640.05 25.55 Q 643.2 22.2 647.45 20.5 A 24.035 24.035 0 0 1 654.851 18.86 A 28.239 28.239 0 0 1 656.7 18.8 A 21.296 21.296 0 0 1 660.874 19.19 A 15.873 15.873 0 0 1 665.2 20.7 Q 668.8 22.6 671.15 25.85 A 21.654 21.654 0 0 1 673.908 31.09 A 26.241 26.241 0 0 1 674.65 33.45 A 35.317 35.317 0 0 1 675.79 41.704 A 39.552 39.552 0 0 1 675.8 42.6 L 674.3 47 L 642 47 Q 642 50.1 642.8 53.2 Q 643.6 56.3 645.55 58.8 A 13.9 13.9 0 0 0 649.329 62.127 A 16.816 16.816 0 0 0 650.65 62.85 Q 653.382 64.194 657.279 64.373 A 26.692 26.692 0 0 0 658.5 64.4 Q 661.5 64.4 664 64.05 A 58.345 58.345 0 0 0 665.784 63.774 Q 667.194 63.532 668.35 63.25 A 31.635 31.635 0 0 0 670.776 62.561 A 26.901 26.901 0 0 0 671.8 62.2 Z M 306.7 32.45 A 20.659 20.659 0 0 0 305.817 34.629 Q 304.3 39.059 304.3 45.1 A 47.13 47.13 0 0 0 304.377 47.828 Q 304.539 50.629 305.046 53.033 A 23.363 23.363 0 0 0 306.65 58 A 27.074 27.074 0 0 0 308.846 61.921 A 19.852 19.852 0 0 0 312.55 66.05 A 24.043 24.043 0 0 0 312.773 66.233 A 21.051 21.051 0 0 0 320.3 70.2 A 33.412 33.412 0 0 0 323.394 70.932 A 26.93 26.93 0 0 0 328.3 71.4 Q 332 71.4 336.3 70.15 A 21.122 21.122 0 0 0 338.283 69.466 A 22.826 22.826 0 0 0 344.3 65.85 A 20.631 20.631 0 0 0 347.878 62.003 A 27.379 27.379 0 0 0 350.45 57.6 A 21.34 21.34 0 0 0 351.39 55.241 Q 352.9 50.703 352.9 44.5 A 43.87 43.87 0 0 0 352.825 41.895 Q 352.475 36.025 350.5 31.95 A 27.352 27.352 0 0 0 348.531 28.519 A 20.883 20.883 0 0 0 344.5 24.05 A 23.862 23.862 0 0 0 344.274 23.868 A 20.843 20.843 0 0 0 336.65 19.95 A 35.572 35.572 0 0 0 332.808 19.125 A 26.217 26.217 0 0 0 328.8 18.8 A 25.195 25.195 0 0 0 325.326 19.048 A 31.735 31.735 0 0 0 320.75 20.05 A 20.952 20.952 0 0 0 318.339 20.923 A 23.165 23.165 0 0 0 312.8 24.35 Q 309.1 27.4 306.7 32.45 Z M 160.3 70.1 L 160.3 27.9 A 31.366 31.366 0 0 0 160.269 26.588 Q 160.18 24.486 159.837 21.063 A 201.652 201.652 0 0 0 159.8 20.7 L 167.2 19.7 L 168 27 L 168.1 27 Q 169.9 24.7 171.6 23 A 24.654 24.654 0 0 1 174.462 20.535 A 22.19 22.19 0 0 1 175.15 20.05 Q 176.671 19.023 178.09 18.84 A 4.768 4.768 0 0 1 178.7 18.8 A 15.388 15.388 0 0 1 179.214 18.787 Q 181.439 18.765 185.1 19.3 L 183.3 27 Q 180.177 26.432 178.845 26.492 A 4.491 4.491 0 0 0 178.7 26.5 A 4.199 4.199 0 0 0 177.118 26.829 Q 176.522 27.07 175.903 27.49 A 9.67 9.67 0 0 0 175.1 28.1 A 23.326 23.326 0 0 0 172.531 30.613 A 20.623 20.623 0 0 0 171.8 31.5 A 40.292 40.292 0 0 0 169.616 34.445 A 49.861 49.861 0 0 0 168.3 36.5 L 168.3 70.1 L 160.3 70.1 Z M 604 70.1 L 604 27.9 A 31.366 31.366 0 0 0 603.969 26.588 Q 603.88 24.486 603.537 21.063 A 201.652 201.652 0 0 0 603.5 20.7 L 610.9 19.7 L 611.7 27 L 611.8 27 Q 613.6 24.7 615.3 23 A 24.654 24.654 0 0 1 618.162 20.535 A 22.19 22.19 0 0 1 618.85 20.05 Q 620.371 19.023 621.79 18.84 A 4.768 4.768 0 0 1 622.4 18.8 A 15.388 15.388 0 0 1 622.914 18.787 Q 625.139 18.765 628.8 19.3 L 627 27 Q 623.877 26.432 622.545 26.492 A 4.491 4.491 0 0 0 622.4 26.5 A 4.199 4.199 0 0 0 620.818 26.829 Q 620.222 27.07 619.603 27.49 A 9.67 9.67 0 0 0 618.8 28.1 A 23.326 23.326 0 0 0 616.231 30.613 A 20.623 20.623 0 0 0 615.5 31.5 A 40.292 40.292 0 0 0 613.316 34.445 A 49.861 49.861 0 0 0 612 36.5 L 612 70.1 L 604 70.1 Z M 284.7 70.1 L 284.7 19.7 L 292.7 18.8 L 292.7 70.1 L 284.7 70.1 Z M 312.8 45.2 A 34.423 34.423 0 0 0 313.183 50.523 Q 314.091 56.31 317.15 59.65 A 14.373 14.373 0 0 0 326.02 64.204 A 20.44 20.44 0 0 0 328.9 64.4 A 18.211 18.211 0 0 0 333.734 63.793 A 13.13 13.13 0 0 0 340.3 59.7 A 14.785 14.785 0 0 0 343.098 54.701 Q 344.4 50.897 344.4 45.6 A 36.57 36.57 0 0 0 344.017 40.112 Q 343.591 37.315 342.693 35.073 A 14.803 14.803 0 0 0 340.05 30.7 A 14.313 14.313 0 0 0 330.956 25.98 A 20.446 20.446 0 0 0 328.2 25.8 A 18.477 18.477 0 0 0 323.512 26.36 A 12.594 12.594 0 0 0 316.75 30.65 A 15.312 15.312 0 0 0 314.193 35.391 Q 313.431 37.606 313.086 40.332 A 38.853 38.853 0 0 0 312.8 45.2 Z M 114.3 32.1 L 114.3 62.8 Q 115.4 63.2 116.75 63.55 Q 117.784 63.818 119.11 64.028 A 38.275 38.275 0 0 0 119.95 64.15 Q 121.8 64.4 124.1 64.4 Q 128.072 64.4 130.971 63.059 A 12.101 12.101 0 0 0 131.3 62.9 Q 134.3 61.4 136.25 58.75 A 17.366 17.366 0 0 0 138.793 53.709 A 20.21 20.21 0 0 0 139.1 52.65 A 28.163 28.163 0 0 0 139.957 46.985 A 32.573 32.573 0 0 0 140 45.3 Q 140 41.8 139.35 38.3 A 23.928 23.928 0 0 0 138.331 34.504 A 19.545 19.545 0 0 0 137.25 32.05 Q 135.8 29.3 133.4 27.55 A 8.988 8.988 0 0 0 129.58 25.971 A 12.176 12.176 0 0 0 127.5 25.8 Q 124.9 25.8 122.6 26.75 Q 120.3 27.7 118.25 29.05 Q 116.2 30.4 114.3 32.1 Z M 558 32.1 L 558 62.8 Q 559.1 63.2 560.45 63.55 Q 561.484 63.818 562.81 64.028 A 38.275 38.275 0 0 0 563.65 64.15 Q 565.5 64.4 567.8 64.4 Q 571.772 64.4 574.671 63.059 A 12.101 12.101 0 0 0 575 62.9 Q 578 61.4 579.95 58.75 A 17.366 17.366 0 0 0 582.493 53.709 A 20.21 20.21 0 0 0 582.8 52.65 A 28.163 28.163 0 0 0 583.657 46.985 A 32.573 32.573 0 0 0 583.7 45.3 Q 583.7 41.8 583.05 38.3 A 23.928 23.928 0 0 0 582.031 34.504 A 19.545 19.545 0 0 0 580.95 32.05 Q 579.5 29.3 577.1 27.55 A 8.988 8.988 0 0 0 573.28 25.971 A 12.176 12.176 0 0 0 571.2 25.8 Q 568.6 25.8 566.3 26.75 Q 564 27.7 561.95 29.05 Q 559.9 30.4 558 32.1 Z M 198.6 40.6 L 223.8 40.6 A 6.564 6.564 0 0 0 223.786 40.213 Q 223.734 39.375 223.5 37.5 A 17.239 17.239 0 0 0 222.837 34.501 A 21.868 21.868 0 0 0 222.1 32.5 Q 221 29.9 218.7 27.85 A 7.848 7.848 0 0 0 215.138 26.065 A 11.506 11.506 0 0 0 212.6 25.8 A 16.563 16.563 0 0 0 209.661 26.046 Q 207.974 26.351 206.609 27.032 A 9.326 9.326 0 0 0 205.7 27.55 A 15.73 15.73 0 0 0 202.882 29.858 A 13.419 13.419 0 0 0 201.4 31.7 A 16.356 16.356 0 0 0 199.821 34.662 A 13.826 13.826 0 0 0 199.2 36.6 A 30.6 30.6 0 0 0 198.884 38.065 Q 198.6 39.569 198.6 40.6 Z M 642.3 40.6 L 667.5 40.6 A 6.564 6.564 0 0 0 667.486 40.213 Q 667.434 39.375 667.2 37.5 A 17.239 17.239 0 0 0 666.537 34.501 A 21.868 21.868 0 0 0 665.8 32.5 Q 664.7 29.9 662.4 27.85 A 7.848 7.848 0 0 0 658.838 26.065 A 11.506 11.506 0 0 0 656.3 25.8 A 16.563 16.563 0 0 0 653.361 26.046 Q 651.674 26.351 650.309 27.032 A 9.326 9.326 0 0 0 649.4 27.55 A 15.73 15.73 0 0 0 646.582 29.858 A 13.419 13.419 0 0 0 645.1 31.7 A 16.356 16.356 0 0 0 643.521 34.662 A 13.826 13.826 0 0 0 642.9 36.6 A 30.6 30.6 0 0 0 642.584 38.065 Q 642.3 39.569 642.3 40.6 Z M 283.781 3.303 A 5.612 5.612 0 0 0 283.4 5.4 A 6.774 6.774 0 0 0 283.4 5.472 A 5.214 5.214 0 0 0 284.95 9.25 A 5.175 5.175 0 0 0 286.703 10.419 A 5.612 5.612 0 0 0 288.8 10.8 A 7.326 7.326 0 0 0 288.949 10.799 A 5.665 5.665 0 0 0 292.85 9.25 A 5.218 5.218 0 0 0 294.01 7.684 A 5.252 5.252 0 0 0 294.5 5.4 A 6.293 6.293 0 0 0 294.497 5.222 A 5.047 5.047 0 0 0 292.85 1.55 Q 291.2 0 288.8 0 A 6.774 6.774 0 0 0 288.728 0.001 A 5.214 5.214 0 0 0 284.95 1.55 A 5.175 5.175 0 0 0 283.781 3.303 Z" vector-effect="non-scaling-stroke"/></g></svg>